<svg width="58" height="59" viewBox="0 0 58 59" fill="none" xmlns="http://www.w3.org/2000/svg">
<g clip-path="url(#clip0_371_179)">
<path d="M28.7274 17.8171C24.0869 17.8171 20.3112 21.5929 20.3112 26.2333C20.3112 30.8738 24.0869 34.6496 28.7274 34.6496C33.3679 34.6496 37.1436 30.8738 37.1436 26.2333C37.1436 21.5929 33.3679 17.8171 28.7274 17.8171Z" fill="white"/>
<path d="M56.3041 24.6372L53.2693 23.6623C52.6544 21.1112 51.6518 18.6915 50.2776 16.4477L51.6567 13.6895C51.9806 13.0419 51.854 12.2594 51.341 11.7465L46.5806 6.9861C46.0661 6.47158 45.287 6.34826 44.6377 6.67043L41.8777 8.05125C39.8295 6.80038 37.6088 5.8535 35.2548 5.22722L33.5996 1.80282C33.3136 1.23243 32.7318 0.872437 32.0939 0.872437H25.3609C24.7231 0.872437 24.1413 1.23243 23.8552 1.80282L22.1999 5.22733C19.8459 5.85361 17.6252 6.80049 15.577 8.05137L12.817 6.67054C12.1661 6.34343 11.3886 6.47001 10.8741 6.98621L6.11369 11.7465C5.60086 12.2594 5.47428 13.0419 5.79803 13.6895L7.17885 16.4494C5.92797 18.4976 4.98109 20.7183 4.35481 23.0723L0.930416 24.7276C0.360021 25.0137 3.05176e-05 25.5955 3.05176e-05 26.2333V32.9663C3.05176e-05 33.6042 0.360021 34.186 0.930416 34.472L4.35492 36.1273C4.92364 38.2527 5.7702 40.2927 6.87979 42.211L5.70612 45.7304C5.50559 46.3353 5.66337 47.0027 6.1138 47.4531L10.8742 52.2136C11.3263 52.664 11.9903 52.8218 12.597 52.6212L16.1163 51.4476C18.2319 52.6754 20.4691 53.5779 22.7902 54.1401L23.765 57.1767C23.9933 57.8637 24.636 58.3272 25.3609 58.3272H32.0939C32.8188 58.3272 33.4616 57.8637 33.6901 57.1766L34.6649 54.14C36.986 53.5778 39.2231 52.6753 41.3387 51.4475L44.8581 52.6211C45.4646 52.8217 46.1321 52.6639 46.5808 52.2134L51.3413 47.453C51.7917 47.0026 51.9495 46.3352 51.7489 45.7303L50.5753 42.2109C51.8031 40.0953 52.7056 37.8582 53.2678 35.5371L56.3044 34.5623C56.9912 34.334 57.4548 33.6912 57.4548 32.9663V26.2333C57.4548 25.5084 56.9912 24.8658 56.3041 24.6372ZM28.7274 48.1155C18.5179 48.1155 10.2117 39.8094 10.2117 29.5998C10.2117 19.3903 18.5179 11.0841 28.7274 11.0841C38.937 11.0841 47.2431 19.3903 47.2431 29.5998C47.2431 39.8094 38.937 48.1155 28.7274 48.1155Z" fill="white"/>
<path d="M36.9137 34.6773C34.7911 36.7353 31.9098 38.016 28.7274 38.016C25.5451 38.016 22.6632 36.7353 20.5409 34.6773C19.1502 36.0522 18.083 37.7562 17.5007 39.6779C20.2761 42.7666 24.2575 44.749 28.7274 44.749C33.1964 44.749 37.1775 42.7674 39.9526 39.6795C39.3709 37.7569 38.3041 36.0523 36.9137 34.6773Z" fill="white"/>
</g>
<defs>
<clipPath id="clip0_371_179">
<rect width="57.4548" height="57.4548" fill="white" transform="translate(3.05176e-05 0.872437)"/>
</clipPath>
</defs>
</svg>
