<svg width="58" height="59" viewBox="0 0 58 59" fill="none" xmlns="http://www.w3.org/2000/svg">
<g clip-path="url(#clip0_371_165)">
<path d="M28.7275 14.1107C32.446 14.1107 35.4604 11.0963 35.4604 7.37776C35.4604 3.65923 32.446 0.644775 28.7275 0.644775C25.0089 0.644775 21.9945 3.65923 21.9945 7.37776C21.9945 11.0963 25.0089 14.1107 28.7275 14.1107Z" fill="white"/>
<path d="M28.7275 46.3093C32.446 46.3093 35.4604 43.2948 35.4604 39.5763C35.4604 35.8578 32.446 32.8433 28.7275 32.8433C25.0089 32.8433 21.9945 35.8578 21.9945 39.5763C21.9945 43.2948 25.0089 46.3093 28.7275 46.3093Z" fill="white"/>
<path d="M32.0939 46.3093H25.361C20.7203 46.3093 16.9447 50.0848 16.9447 54.7255V58.092H40.5102V54.7255C40.5102 50.0848 36.7346 46.3093 32.0939 46.3093Z" fill="white"/>
<path d="M49.0386 46.3088H45.6873C49.3928 46.3006 52.4051 43.2838 52.4051 39.5763C52.4051 35.8637 49.3847 32.8433 45.6721 32.8433C41.9596 32.8433 38.9391 35.8637 38.9391 39.5763C38.9391 43.2838 41.9515 46.3006 45.657 46.3089H42.3056C41.7008 46.3089 41.1038 46.374 40.5225 46.5008C42.5963 48.6262 43.8767 51.5281 43.8767 54.7251V58.0916H57.4548V54.7251C57.4548 50.0849 53.6799 46.3088 49.0386 46.3088Z" fill="white"/>
<path d="M11.7979 46.3088C15.5034 46.3006 18.5158 43.2838 18.5158 39.5763C18.5158 35.8637 15.4953 32.8433 11.7828 32.8433C8.07021 32.8433 5.0498 35.8637 5.0498 39.5763C5.0498 43.2838 8.06213 46.3006 11.7676 46.3089H8.41629C3.77614 46.3089 6.10352e-05 50.085 6.10352e-05 54.7251V58.0916H13.5782V54.7251C13.5782 51.5281 14.8586 48.6262 16.9324 46.5008C16.3522 46.374 15.7541 46.3089 15.1493 46.3089L11.7979 46.3088Z" fill="white"/>
<path d="M23.6777 14.1106H27.0442V20.8435H16.9447C16.9447 17.1314 19.9656 14.1106 23.6777 14.1106Z" fill="white"/>
<path d="M40.5102 20.8435H30.4107V14.1106H33.7772C37.4893 14.1106 40.5102 17.1314 40.5102 20.8435Z" fill="white"/>
<path d="M47.3554 24.21V15.0966L43.4958 11.2372L41.1153 13.6176L43.9889 16.4911V24.2101C39.6155 24.2101 10.7502 24.2101 6.73303 24.2101V27.5766H10.0995V29.6179C10.6471 29.5247 11.2093 29.4765 11.7828 29.4765C15.3288 29.4765 18.4529 31.3134 20.2551 34.0852C22.0573 31.3134 25.1814 29.4765 28.7274 29.4765C32.2735 29.4765 35.3976 31.3134 37.1998 34.0852C39.002 31.3134 42.1261 29.4765 45.6721 29.4765C46.2455 29.4765 46.8077 29.5247 47.3554 29.6179V27.5766H50.6096V24.2101L47.3554 24.21Z" fill="white"/>
</g>
<defs>
<clipPath id="clip0_371_165">
<rect width="57.4548" height="57.4548" fill="white" transform="translate(6.10352e-05 0.6409)"/>
</clipPath>
</defs>
</svg>
