<svg width="105" height="70" viewBox="0 0 105 70" fill="none" xmlns="http://www.w3.org/2000/svg">
<path d="M90.4998 0.0392807V3.54649C93.9011 3.46232 96.1013 7.42967 94.3052 10.2635C82.8161 27.2272 61.241 59.0838 61.241 59.0838L61.2241 59.0558L57.0315 52.855L87.991 6.89096V0.0392807C87.991 0.0392807 73.6338 0.0224461 73.6394 0.0505038C73.645 0.0617268 73.6225 3.53526 73.645 3.52965C74.8573 3.52965 75.9686 4.01786 76.7769 4.80347C78.2642 6.20635 78.5617 8.68104 77.3381 10.3926C73.7685 15.6618 53.2878 45.9192 52.822 46.6038L44.1672 33.8488C42.0456 31.2394 43.3534 27.648 46.2776 26.7558C49.0054 25.611 51.1999 23.4394 52.373 20.7178C52.9735 19.3261 52.8893 8.49025 52.1484 6.92463C50.285 2.95728 46.3169 0.173957 41.6864 0H41.6752C41.5293 0 15.5033 0 0.46698 0.0168346V6.87974L5.32194 13.8717C7.6512 13.8717 11.4229 13.8717 13.7522 13.8717C11.7933 11.094 13.7858 6.92463 17.4172 6.94146C17.4172 6.94146 41.9222 6.93024 42.012 6.93024C44.431 6.9583 46.3674 8.95039 46.3674 11.369V16.3071C46.3674 18.7537 44.3861 20.7346 41.9446 20.7346C41.8099 20.7346 26.0439 20.7234 18.3321 20.729C14.7737 20.729 12.6633 24.7188 14.6614 27.6705C21.5987 37.9171 34.5191 57.1871 42.7416 69.3361H45.8735C47.9109 66.3283 51.4244 61.132 52.7939 59.1119C52.8051 59.1119 52.8108 59.1119 52.822 59.1119C53.2036 59.6786 57.2279 65.6269 59.7424 69.3361H62.7508C64.2213 67.1644 104.969 6.89657 104.969 6.89657V0.134677C104.969 0.106619 104.969 0.0729499 104.969 0.0392807H90.4886H90.4998ZM48.5732 52.8887L44.3749 59.0838C43.0335 57.1029 40.8165 53.8258 39.4919 51.8674C37.5667 49.028 34.5696 44.5948 32.6332 41.7386C29.7371 37.4682 25.9766 31.9016 23.0973 27.648C23.1478 27.648 31.4882 27.648 31.5331 27.648C37.0841 35.8465 43.0503 44.6622 48.6013 52.855L48.5788 52.8887H48.5732Z" fill="#DC7E43"/>
</svg>
