<svg width="152" height="73" viewBox="0 0 152 73" fill="none" xmlns="http://www.w3.org/2000/svg">
<path d="M28.9195 72.1248V72.084C29.125 72.0363 29.3198 71.8888 29.5018 71.6393C29.6838 71.3897 29.8465 71.063 29.9878 70.6546L31.7327 65.518L31.5485 64.9757H32.33L34.3724 70.8996C34.4559 71.1447 34.548 71.3466 34.6464 71.5031C34.7449 71.6597 34.8413 71.7799 34.9312 71.8661C35.0211 71.9524 35.1025 72.0091 35.1774 72.0408C35.2502 72.0726 35.3016 72.0862 35.3272 72.0862V72.1271H33.0729V72.0862C33.1242 72.0794 33.1799 72.0681 33.242 72.0499C33.3041 72.0318 33.3598 72 33.4111 71.9524C33.4625 71.9047 33.5053 71.8435 33.5417 71.7686C33.576 71.6937 33.5953 71.5939 33.5953 71.4714C33.5953 71.2604 33.5524 71.0153 33.4689 70.7363C33.3854 70.4572 33.2998 70.1872 33.2077 69.9286L32.8887 68.9779H30.6729L30.2576 70.2439C30.1741 70.5026 30.1077 70.7453 30.0606 70.97C30.0114 71.1946 29.9878 71.3761 29.9878 71.5122C29.9878 71.6551 30.0114 71.7641 30.0606 71.8389C30.1098 71.9138 30.1676 71.9705 30.234 72.0068C30.3025 72.0454 30.3668 72.0658 30.431 72.0726C30.4952 72.0794 30.5402 72.084 30.5659 72.084V72.1248H28.9174H28.9195ZM32.8524 68.8758L31.7733 65.6269L30.7136 68.8758H32.8524Z" fill="#3C3C3B"/>
<path d="M42.8352 70.7136V66.3824C42.8352 66.0829 42.8095 65.8424 42.7581 65.6632C42.7068 65.4839 42.6404 65.3455 42.5612 65.2502C42.4798 65.1549 42.392 65.0914 42.2957 65.0619C42.1994 65.0302 42.1094 65.0165 42.0259 65.0165V64.9757H44.6957C45.1902 64.9757 45.6291 65.0755 46.0102 65.2729C46.3913 65.4703 46.7145 65.738 46.9779 66.0738C47.2412 66.4119 47.4425 66.7998 47.5795 67.2423C47.7186 67.6847 47.7871 68.1521 47.7871 68.6421C47.7871 69.0777 47.7293 69.5043 47.6137 69.924C47.4981 70.3438 47.3204 70.7158 47.0828 71.0426C46.8451 71.3693 46.5433 71.6325 46.1772 71.8298C45.8111 72.0272 45.3765 72.1271 44.8755 72.1271H42.0238V72.0862C42.1073 72.0862 42.1972 72.0703 42.2936 72.0408C42.3899 72.0114 42.4777 71.9478 42.559 71.8525C42.6382 71.7572 42.7046 71.6188 42.756 71.4396C42.8074 71.2604 42.8331 71.0199 42.8331 70.7204L42.8352 70.7136ZM43.6081 71.3171C43.6081 71.4873 43.6359 71.6188 43.6894 71.7164C43.743 71.814 43.8157 71.882 43.9014 71.9251C43.987 71.9705 44.0834 71.9977 44.1861 72.0068C44.2889 72.0182 44.3895 72.0227 44.4859 72.0227H44.8712C45.1538 72.0227 45.4257 71.9319 45.6848 71.7527C45.946 71.5735 46.1729 71.3262 46.3699 71.0131C46.5668 70.7 46.7231 70.3347 46.843 69.9195C46.9607 69.5043 47.0207 69.0619 47.0207 68.5922C47.0207 68.1566 46.9672 67.7278 46.8623 67.3058C46.7552 66.8838 46.6011 66.5072 46.3955 66.1782C46.19 65.8492 45.9395 65.5815 45.6441 65.3818C45.3486 65.1822 45.0104 65.0801 44.6314 65.0801H44.4859C44.3895 65.0801 44.2889 65.0846 44.1861 65.096C44.0834 65.1073 43.9892 65.1345 43.9014 65.1776C43.8136 65.2207 43.743 65.2911 43.6894 65.3864C43.6359 65.4817 43.6081 65.6155 43.6081 65.7857V71.3216V71.3171Z" fill="#3C3C3B"/>
<path d="M53.9188 64.9757H56.1732V65.0165C56.1218 65.0234 56.0662 65.0347 56.0041 65.0528C55.942 65.071 55.8863 65.1028 55.8349 65.1504C55.7836 65.1981 55.7407 65.2593 55.7043 65.3342C55.6679 65.4091 55.6508 65.5089 55.6508 65.6314C55.6508 65.8424 55.6915 66.0874 55.775 66.3665C55.8585 66.6456 55.9441 66.9156 56.0362 67.1742L57.4727 71.4646L58.9864 66.8588C59.0699 66.6002 59.1362 66.3574 59.1833 66.1328C59.2304 65.9082 59.2561 65.729 59.2561 65.5906C59.2561 65.4522 59.2326 65.3387 59.1833 65.2638C59.1341 65.189 59.0763 65.1323 59.0099 65.096C58.9435 65.0597 58.8772 65.037 58.8172 65.0302C58.7551 65.0234 58.7102 65.0188 58.6781 65.0188V64.978H60.3266V65.0188C60.121 65.0665 59.9262 65.2139 59.7442 65.4635C59.5601 65.7131 59.3996 66.0398 59.2583 66.4482L57.3314 72.1271H56.9161L54.8737 66.2031C54.7902 65.9581 54.6981 65.7562 54.5996 65.5996C54.499 65.4431 54.4048 65.3228 54.3149 65.2366C54.225 65.1527 54.1436 65.0937 54.073 65.0619C54.0023 65.0302 53.9509 65.0165 53.9188 65.0165V64.9757Z" fill="#3C3C3B"/>
<path d="M69.205 64.9643C69.6674 64.9574 70.0828 65.0414 70.4488 65.2138C70.8149 65.3863 71.1275 65.6336 71.3844 65.9489C71.6413 66.2666 71.8404 66.6455 71.9817 67.0879C72.123 67.5303 72.1958 68.0181 72.2044 68.549C72.2108 69.0867 72.1487 69.5745 72.016 70.0147C71.8833 70.4548 71.6906 70.8292 71.4337 71.1423C71.1768 71.4554 70.8642 71.6981 70.4981 71.8728C70.132 72.0475 69.7209 72.136 69.2649 72.1428C68.8089 72.1496 68.3957 72.0702 68.0275 71.9023C67.6571 71.7367 67.3445 71.4985 67.0876 71.1922C66.8307 70.8859 66.6316 70.5138 66.4903 70.0782C66.349 69.6426 66.2741 69.1548 66.2676 68.6171C66.2612 68.0794 66.3255 67.5848 66.4603 67.1355C66.5952 66.6863 66.79 66.3006 67.0427 65.9807C67.2974 65.6608 67.6057 65.4112 67.9718 65.2297C68.3379 65.0505 68.749 64.9597 69.205 64.9597V64.9643ZM67.0362 68.6103C67.0362 69.1071 67.0876 69.5677 67.1904 69.9897C67.2931 70.4117 67.4409 70.7747 67.6336 71.0765C67.8262 71.3805 68.0596 71.6165 68.3315 71.7866C68.6034 71.9568 68.9138 72.043 69.2606 72.043C69.6075 72.043 69.9158 71.9523 70.1855 71.773C70.4553 71.5938 70.6822 71.3465 70.8706 71.0334C71.0569 70.7203 71.1982 70.3505 71.2945 69.9262C71.3909 69.5019 71.4358 69.0436 71.4294 68.5535C71.423 68.0635 71.3694 67.6029 71.271 67.1741C71.1703 66.7453 71.0269 66.3732 70.8364 66.0601C70.648 65.747 70.4146 65.502 70.1427 65.325C69.8687 65.148 69.5604 65.0641 69.2135 65.0686C68.8667 65.0754 68.5584 65.1707 68.2887 65.3545C68.0189 65.5383 67.7898 65.7878 67.6036 66.1055C67.4173 66.4231 67.276 66.7952 67.1797 67.224C67.0833 67.6528 67.0341 68.1157 67.0341 68.6125L67.0362 68.6103Z" fill="#3C3C3B"/>
<path d="M82.3479 64.9551C82.5919 64.9551 82.806 64.9732 82.9944 65.0073C83.1807 65.0413 83.3455 65.0776 83.4911 65.1184C83.6367 65.1593 83.7609 65.1978 83.8679 65.2319C83.975 65.2659 84.0649 65.2841 84.142 65.2841C84.2319 65.2841 84.3025 65.2568 84.3539 65.2024L84.6237 67.1944L84.5851 67.2058C84.5337 67.022 84.4395 66.8064 84.3047 66.5614C84.1698 66.3164 83.9985 66.0827 83.793 65.8626C83.5875 65.6425 83.3455 65.452 83.0694 65.2954C82.7932 65.1389 82.487 65.0594 82.153 65.0594C81.8448 65.0594 81.5472 65.1343 81.256 65.2841C80.967 65.4338 80.7122 65.6493 80.4896 65.9329C80.2669 66.2165 80.0892 66.5546 79.9543 66.9494C79.8195 67.3442 79.7509 67.7866 79.7509 68.2767C79.7509 68.828 79.8366 69.3226 80.0057 69.7582C80.1748 70.1938 80.4018 70.5591 80.6844 70.8563C80.967 71.1535 81.2903 71.3781 81.6521 71.5347C82.0139 71.6912 82.3928 71.7706 82.7846 71.7706C83.003 71.7706 83.2042 71.748 83.3862 71.698C83.5703 71.6504 83.7352 71.5891 83.8829 71.5143V69.951C83.8829 69.6516 83.8572 69.4111 83.8058 69.2318C83.7544 69.0526 83.6881 68.9142 83.6089 68.8189C83.5275 68.7236 83.4397 68.6601 83.3434 68.6306C83.247 68.6011 83.1571 68.5852 83.0736 68.5852V68.5444H85.4629V68.5852C85.3794 68.5852 85.2895 68.6011 85.1931 68.6306C85.0968 68.6624 85.009 68.7236 84.9277 68.8189C84.8463 68.9142 84.7821 69.0526 84.7307 69.2318C84.6793 69.4133 84.6536 69.6516 84.6536 69.951V71.7593C84.6087 71.6436 84.5316 71.5846 84.4224 71.5846C84.3261 71.5846 84.204 71.6164 84.0563 71.6822C83.9086 71.748 83.7437 71.8206 83.5596 71.9022C83.3755 71.9839 83.1743 72.0565 82.9516 72.1223C82.729 72.1859 82.4934 72.2199 82.243 72.2199C81.7741 72.2199 81.3395 72.1359 80.937 71.9703C80.5345 71.8047 80.1877 71.5642 79.8922 71.2511C79.5968 70.938 79.3677 70.5591 79.2029 70.1167C79.038 69.6742 78.9567 69.1774 78.9567 68.6261C78.9567 68.1156 79.0316 67.6368 79.1793 67.1921C79.327 66.7452 79.5433 66.3572 79.8302 66.0282C80.1149 65.697 80.4703 65.4383 80.8899 65.2478C81.3095 65.0572 81.7934 64.9619 82.3393 64.9619L82.3479 64.9551Z" fill="#3C3C3B"/>
<path d="M91.5903 72.1248V72.084C91.7958 72.0363 91.9906 71.8888 92.1726 71.6393C92.3567 71.3897 92.5173 71.063 92.6586 70.6546L94.4034 65.518L94.2193 64.9757H95.0007L97.0432 70.8996C97.1267 71.1447 97.2187 71.3466 97.3172 71.5031C97.4178 71.6597 97.512 71.7799 97.602 71.8661C97.6919 71.9524 97.7732 72.0091 97.8482 72.0408C97.9231 72.0726 97.9723 72.0862 97.998 72.0862V72.1271H95.7436V72.0862C95.795 72.0794 95.8507 72.0681 95.9128 72.0499C95.9727 72.0318 96.0305 72 96.0819 71.9524C96.1333 71.9047 96.1761 71.8435 96.2125 71.7686C96.2489 71.6937 96.266 71.5939 96.266 71.4714C96.266 71.2604 96.2232 71.0153 96.1397 70.7363C96.0562 70.4572 95.9684 70.1872 95.8785 69.9286L95.5595 68.9779H93.3437L92.9283 70.2439C92.8448 70.5026 92.7785 70.7453 92.7314 70.97C92.6843 71.1946 92.6586 71.3761 92.6586 71.5122C92.6586 71.6551 92.6821 71.7641 92.7314 71.8389C92.7806 71.9138 92.8384 71.9705 92.9048 72.0068C92.9733 72.0454 93.0375 72.0658 93.1018 72.0726C93.166 72.0794 93.2109 72.084 93.2366 72.084V72.1248H91.5881H91.5903ZM95.5231 68.8758L94.4441 65.6269L93.3844 68.8758H95.5231Z" fill="#3C3C3B"/>
<path d="M105.506 70.7136V66.3824C105.506 66.0829 105.481 65.8424 105.429 65.6632C105.378 65.4839 105.311 65.3455 105.232 65.2502C105.151 65.1549 105.063 65.0914 104.967 65.0619C104.87 65.0302 104.78 65.0165 104.697 65.0165V64.9757H107.367C107.861 64.9757 108.3 65.0755 108.681 65.2729C109.064 65.4703 109.386 65.738 109.649 66.0738C109.912 66.4119 110.113 66.7998 110.25 67.2423C110.388 67.6847 110.458 68.1521 110.458 68.6421C110.458 69.0777 110.4 69.5043 110.285 69.924C110.169 70.3438 109.991 70.7158 109.754 71.0426C109.516 71.3693 109.214 71.6325 108.848 71.8298C108.482 72.0272 108.047 72.1271 107.547 72.1271H104.695V72.0862C104.778 72.0862 104.868 72.0703 104.965 72.0408C105.061 72.0114 105.149 71.9478 105.23 71.8525C105.309 71.7572 105.376 71.6188 105.427 71.4396C105.478 71.2604 105.504 71.0199 105.504 70.7204L105.506 70.7136ZM106.277 71.3171C106.277 71.4873 106.305 71.6188 106.358 71.7164C106.412 71.814 106.485 71.882 106.57 71.9251C106.658 71.9705 106.752 71.9977 106.855 72.0068C106.958 72.0182 107.058 72.0227 107.155 72.0227H107.54C107.823 72.0227 108.095 71.9319 108.354 71.7527C108.615 71.5735 108.842 71.3262 109.039 71.0131C109.234 70.7 109.392 70.3347 109.512 69.9195C109.632 69.5043 109.69 69.0619 109.69 68.5922C109.69 68.1566 109.636 67.7278 109.531 67.3058C109.426 66.8838 109.27 66.5072 109.064 66.1782C108.859 65.8492 108.608 65.5815 108.313 65.3818C108.018 65.1822 107.679 65.0801 107.3 65.0801H107.155C107.058 65.0801 106.958 65.0846 106.855 65.096C106.752 65.1073 106.658 65.1345 106.57 65.1776C106.482 65.2207 106.412 65.2911 106.358 65.3864C106.305 65.4817 106.277 65.6155 106.277 65.7857V71.3216V71.3171Z" fill="#3C3C3B"/>
<path d="M116.493 72.1248V72.084C116.699 72.0363 116.894 71.8888 117.076 71.6393C117.258 71.3897 117.42 71.063 117.562 70.6546L119.307 65.518L119.122 64.9757H119.904L121.946 70.8996C122.03 71.1447 122.122 71.3466 122.22 71.5031C122.319 71.6597 122.415 71.7799 122.505 71.8661C122.595 71.9524 122.676 72.0091 122.751 72.0408C122.826 72.0726 122.875 72.0862 122.901 72.0862V72.1271H120.647V72.0862C120.698 72.0794 120.754 72.0681 120.816 72.0499C120.878 72.0318 120.934 72 120.985 71.9524C121.036 71.9047 121.079 71.8435 121.116 71.7686C121.152 71.6937 121.169 71.5939 121.169 71.4714C121.169 71.2604 121.126 71.0153 121.043 70.7363C120.959 70.4572 120.874 70.1872 120.782 69.9286L120.463 68.9779H118.247L117.831 70.2439C117.748 70.5026 117.682 70.7453 117.634 70.97C117.585 71.1946 117.562 71.3761 117.562 71.5122C117.562 71.6551 117.585 71.7641 117.634 71.8389C117.682 71.9138 117.739 71.9705 117.808 72.0068C117.876 72.0454 117.941 72.0658 118.005 72.0726C118.069 72.0794 118.114 72.084 118.14 72.084V72.1248H116.491H116.493ZM120.426 68.8758L119.347 65.6269L118.287 68.8758H120.426Z" fill="#3C3C3B"/>
<path d="M90.37 0.694959V2.11298C91.6673 2.07895 92.5066 3.68301 91.8215 4.82877C87.439 11.6874 79.2094 24.5676 79.2094 24.5676L79.203 24.5563L77.6037 22.0492L89.413 3.4652V0.694959C89.413 0.694959 83.9365 0.688152 83.9387 0.699497C83.9408 0.704034 83.9322 2.10844 83.9408 2.10617C84.4032 2.10617 84.8271 2.30356 85.1354 2.6212C85.7028 3.1884 85.8162 4.18896 85.3495 4.88095C83.9879 7.01139 76.1757 19.2449 75.998 19.5217L72.6967 14.3647C71.8875 13.3097 72.3863 11.8576 73.5017 11.4969C74.5422 11.034 75.3793 10.156 75.8267 9.0556C76.0558 8.49293 76.0237 4.11182 75.7411 3.47882C75.0303 1.87475 73.5167 0.749411 71.7504 0.679077H71.7462C71.6905 0.679077 61.7631 0.679077 56.0276 0.685884V3.46066L57.8795 6.28763C58.768 6.28763 60.2066 6.28763 61.0951 6.28763C60.3479 5.16456 61.108 3.47881 62.4931 3.48562C62.4931 3.48562 71.8404 3.48108 71.8746 3.48108C72.7973 3.49243 73.536 4.29786 73.536 5.27573V7.2723C73.536 8.26151 72.7802 9.06241 71.8489 9.06241C71.7975 9.06241 65.7837 9.05787 62.8421 9.06014C61.4848 9.06014 60.6798 10.6733 61.442 11.8667C64.0881 16.0096 69.0165 23.8007 72.1529 28.7128H73.3476C74.1247 27.4967 75.4649 25.3957 75.9873 24.5789C75.9916 24.5789 75.9937 24.5789 75.998 24.5789C76.1436 24.8081 77.6786 27.2131 78.6378 28.7128H79.7853C80.3462 27.8347 95.8892 3.46747 95.8892 3.46747V0.733529C95.8892 0.722185 95.8892 0.708572 95.8892 0.694959H90.3657H90.37ZM74.3773 22.0628L72.7759 24.5676C72.2643 23.7667 71.4186 22.4417 70.9133 21.6499C70.179 20.5019 69.0358 18.7095 68.2972 17.5546C67.1924 15.8281 65.758 13.5774 64.6597 11.8576C64.679 11.8576 67.8604 11.8576 67.8775 11.8576C69.9949 15.1724 72.2707 18.7367 74.3881 22.0492L74.3795 22.0628H74.3773Z" fill="#DC7E43"/>
<path d="M2.38069 55.0427V42.3055C2.38069 41.4252 2.30576 40.7173 2.15376 40.1864C2.00175 39.6555 1.80907 39.2517 1.57357 38.9703C1.33593 38.6913 1.07688 38.5052 0.794278 38.4145C0.511678 38.3237 0.246205 38.2783 0 38.2783V38.1581H8.61717C9.75185 38.1581 10.7388 38.419 11.5802 38.9386C12.4216 39.4604 13.0767 40.1161 13.5498 40.9056C14.023 41.6975 14.297 42.5687 14.3719 43.5193C14.4469 44.47 14.2906 45.373 13.9052 46.2238C13.5177 47.0746 12.8712 47.821 11.9634 48.4608C11.0557 49.1029 9.85676 49.5113 8.36454 49.6928C8.96828 50.6934 9.56345 51.7098 10.1501 52.7421C10.7345 53.7744 11.2976 54.7251 11.8371 55.5963C12.3766 56.4676 12.8819 57.214 13.3529 57.8334C13.826 58.455 14.2413 58.8657 14.601 59.0654V59.1856H9.24446V59.0654C9.45212 58.9655 9.58486 58.7659 9.64052 58.4641C9.69619 58.1646 9.64909 57.729 9.49922 57.1573C9.34722 56.5855 9.07318 55.8754 8.67711 55.0246C8.28105 54.1738 7.74154 53.1664 7.06073 52.0048L5.75691 49.7813H4.6522V55.0382C4.6522 55.9208 4.72713 56.6264 4.87914 57.1573C5.03114 57.6882 5.22382 58.0943 5.45932 58.3734C5.69482 58.6547 5.95602 58.8385 6.23862 58.9292C6.52122 59.02 6.78669 59.0654 7.03289 59.0654V59.1856H0.00214137V59.0654C0.248346 59.0654 0.511678 59.02 0.796419 58.9292C1.07902 58.8385 1.34021 58.6547 1.57571 58.3734C1.81121 58.092 2.00603 57.6882 2.1559 57.1573C2.3079 56.6264 2.38283 55.9208 2.38283 55.0382L2.38069 55.0427ZM4.65006 49.4864H6.80382C7.95563 49.4864 8.91476 49.2164 9.6812 48.6764C10.4476 48.1364 11.0321 47.4558 11.4389 46.6344C11.8457 45.8131 12.0662 44.9283 12.1047 43.9754C12.1433 43.0247 11.9998 42.1376 11.6787 41.3163C11.3575 40.495 10.8608 39.8143 10.1907 39.2743C9.52063 38.7344 8.67497 38.4644 7.65376 38.4644H7.22772C6.94512 38.4644 6.65181 38.4803 6.34994 38.5098C6.04807 38.5392 5.76976 38.6209 5.51285 38.7502C5.25808 38.8818 5.05041 39.086 4.88984 39.3651C4.72927 39.6464 4.65006 40.0367 4.65006 40.5358V49.4886V49.4864Z" fill="#DC7E43"/>
<path d="M21.1758 44.1091C22.1585 44.1091 23.0555 44.2952 23.8691 44.665C24.6805 45.0348 25.3763 45.5498 25.9522 46.2123C26.5281 46.8726 26.9734 47.6689 27.2838 48.6014C27.5964 49.5339 27.7506 50.5594 27.7506 51.6802C27.7506 52.801 27.5943 53.8288 27.2838 54.759C26.9713 55.6915 26.5281 56.4856 25.9522 57.1481C25.3763 57.8083 24.6805 58.3256 23.8691 58.6954C23.0555 59.0653 22.1585 59.2513 21.1758 59.2513C20.1931 59.2513 19.3282 59.0675 18.5254 58.6954C17.7225 58.3256 17.0331 57.8083 16.4551 57.1481C15.8792 56.4879 15.4339 55.6915 15.1235 54.759C14.8109 53.8265 14.6567 52.801 14.6567 51.6802C14.6567 50.5594 14.813 49.5316 15.1235 48.6014C15.436 47.6712 15.8792 46.8748 16.4551 46.2123C17.031 45.5521 17.7204 45.0371 18.5254 44.665C19.3282 44.2952 20.2124 44.1091 21.1758 44.1091ZM16.9218 51.6802C16.9218 52.6626 17.0246 53.5928 17.2344 54.4732C17.4421 55.3535 17.7311 56.1249 18.0993 56.7851C18.4676 57.4453 18.9107 57.9717 19.431 58.3619C19.9512 58.7522 20.5314 58.9473 21.1737 58.9473C21.8159 58.9473 22.4026 58.7522 22.9314 58.3619C23.4602 57.9717 23.914 57.4453 24.2908 56.7851C24.6676 56.1249 24.9609 55.3535 25.1708 54.4732C25.3784 53.5928 25.4833 52.6604 25.4833 51.6802C25.4833 50.7001 25.3784 49.7676 25.1708 48.8873C24.9631 48.007 24.6698 47.2356 24.2908 46.5731C23.9119 45.9129 23.4602 45.3865 22.9314 44.9962C22.4026 44.606 21.8159 44.4109 21.1737 44.4109C20.5314 44.4109 19.9491 44.606 19.431 44.9962C18.9107 45.3865 18.4676 45.9129 18.0993 46.5731C17.7311 47.2333 17.4421 48.0047 17.2344 48.8873C17.0267 49.7676 16.9218 50.7001 16.9218 51.6802Z" fill="#DC7E43"/>
<path d="M31.3515 36.6582H31.4072V48.4334C31.7283 47.0925 32.3149 46.0352 33.1648 45.2638C34.0148 44.4924 34.9975 44.1067 36.1129 44.1067C36.8494 44.1067 37.5537 44.2814 38.2238 44.6331C38.8939 44.9848 39.4955 45.4748 40.0243 46.1056C40.5531 46.7363 40.9749 47.4986 41.2853 48.388C41.5979 49.2797 41.752 50.2666 41.752 51.3466C41.752 52.5082 41.5722 53.5836 41.2125 54.5751C40.8529 55.5666 40.3712 56.4219 39.7674 57.1434C39.1615 57.8649 38.4486 58.4299 37.6265 58.8405C36.8044 59.2512 35.9395 59.4554 35.0339 59.4554C34.4858 59.4554 34.0084 59.4009 33.6016 59.2897C33.1948 59.1808 32.8373 59.0651 32.5247 58.9449C32.2121 58.8246 31.9381 58.7089 31.7026 58.6C31.4671 58.4911 31.2359 58.4344 31.0089 58.4344C30.7071 58.4344 30.3945 58.5456 30.0734 58.7656C29.7522 58.9857 29.4868 59.2671 29.2791 59.6074H29.1378V40.1408C29.1378 39.4397 29.0093 38.9451 28.7546 38.6525C28.4998 38.362 28.2686 38.2168 28.0609 38.2168V38.0966C28.5512 38.0966 28.9858 38.0467 29.3647 37.9468C29.7415 37.847 30.0627 37.7268 30.3281 37.5861C30.5915 37.4454 30.8098 37.2912 30.9811 37.121C31.1502 36.9508 31.2744 36.7966 31.3494 36.6559L31.3515 36.6582ZM31.4072 55.8547C31.4072 56.3153 31.4971 56.7464 31.6769 57.1457C31.8567 57.5473 32.103 57.8967 32.4134 58.1962C32.726 58.4957 33.0985 58.7316 33.5331 58.9018C33.9677 59.0719 34.4408 59.1559 34.9504 59.1559C35.8196 59.1559 36.5432 58.9358 37.1191 58.4957C37.695 58.0555 38.1575 57.4951 38.5086 56.8145C38.8575 56.1338 39.108 55.3783 39.26 54.5456C39.412 53.7152 39.487 52.9189 39.487 52.1565C39.487 51.0153 39.3628 49.9943 39.1187 49.0913C38.8725 48.1906 38.5471 47.4283 38.1403 46.8089C37.7336 46.1895 37.2711 45.7131 36.7509 45.3818C36.2306 45.0506 35.6975 44.8872 35.1495 44.8872C34.6763 44.8872 34.2289 45.012 33.8028 45.2616C33.3768 45.5134 33 45.8628 32.6682 46.312C32.3363 46.7635 32.0623 47.3035 31.846 47.9342C31.6277 48.565 31.4821 49.2615 31.4072 50.0216V55.8502V55.8547Z" fill="#DC7E43"/>
<path d="M42.9446 51.7392C42.9446 50.6184 43.0859 49.5906 43.3706 48.6604C43.6532 47.7302 44.0557 46.9225 44.576 46.2418C45.0962 45.5612 45.7149 45.0348 46.4321 44.665C47.1493 44.2952 47.9436 44.1091 48.8128 44.1091C49.53 44.1091 50.183 44.2339 50.7696 44.4835C51.3562 44.7353 51.8572 45.0893 52.2725 45.5498C52.6879 46.0104 53.009 46.5617 53.2359 47.2015C53.4629 47.8436 53.5763 48.5424 53.5763 49.3048H45.2139C45.1754 49.5248 45.1583 49.7563 45.1583 49.9967V50.7477C45.1583 52.0092 45.3189 53.0801 45.64 53.9627C45.9611 54.8452 46.3765 55.5599 46.8881 56.1113C47.3977 56.6626 47.965 57.0574 48.588 57.2978C49.211 57.5383 49.8362 57.6586 50.4592 57.6586C51.2149 57.6586 51.9043 57.5043 52.5294 57.1935C53.1525 56.8827 53.6063 56.4675 53.8911 55.9456V56.0954C53.7391 56.5968 53.5078 57.0415 53.1974 57.4317C52.8848 57.8219 52.5209 58.1487 52.1055 58.4073C51.6902 58.6682 51.2321 58.8679 50.7311 59.0085C50.2301 59.1492 49.7141 59.2195 49.1853 59.2195C48.4489 59.2195 47.706 59.0743 46.9609 58.7839C46.2138 58.4935 45.5437 58.0443 44.9485 57.4317C44.3533 56.8214 43.8716 56.0455 43.5034 55.1039C43.1351 54.1623 42.951 53.0415 42.951 51.7392H42.9446ZM45.2696 49.0053H50.3714C50.8253 49.0053 51.095 48.7648 51.1785 48.2838C51.2642 47.8028 51.2064 47.2764 51.0094 46.7069C50.8124 46.1375 50.4849 45.6111 50.031 45.1301C49.5771 44.6491 49.0398 44.4086 48.4146 44.4086C47.6203 44.4086 46.9395 44.8397 46.3743 45.6996C45.807 46.5617 45.4387 47.6621 45.2696 49.003V49.0053Z" fill="#DC7E43"/>
<path d="M55.7279 55.0425V47.0222C55.7279 46.3211 55.5995 45.8265 55.3447 45.5361C55.0899 45.2457 54.8587 45.1005 54.651 45.1005V44.9803C55.1413 44.9803 55.5759 44.9303 55.9549 44.8305C56.3317 44.7307 56.6528 44.6104 56.9183 44.4698C57.1837 44.3291 57.4 44.1748 57.5712 44.0047C57.7404 43.8345 57.8645 43.6802 57.9395 43.5396H57.9973V47.476C58.1664 46.8362 58.3848 46.2939 58.6503 45.8538C58.9136 45.4136 59.2112 45.0574 59.543 44.7874C59.8727 44.5174 60.2174 44.3223 60.5771 44.202C60.9368 44.0818 61.2857 44.0205 61.6261 44.0205C62.0051 44.0205 62.3583 44.0795 62.6902 44.202C63.0199 44.3223 63.3003 44.4834 63.5273 44.683C63.9041 45.0438 64.1032 45.4045 64.1224 45.7653C64.1417 46.126 64.0368 46.4368 63.8099 46.6978C63.5637 46.9587 63.2896 47.088 62.9878 47.088C62.8507 47.088 62.7116 47.0653 62.566 47.0177C62.1721 46.8906 61.8702 46.5684 61.6647 46.1895C61.5769 46.0262 61.4634 45.8878 61.3285 45.7812C61.093 45.5906 60.8233 45.4953 60.5214 45.4953C60.029 45.4953 59.5238 45.7517 59.0057 46.2621C58.4854 46.7726 58.1514 47.5395 57.9994 48.5605V55.0493C57.9994 55.9319 58.0744 56.6375 58.2264 57.1684C58.3784 57.6993 58.571 58.1054 58.8065 58.3845C59.042 58.6658 59.3032 58.8496 59.5858 58.9404C59.8684 59.0311 60.1339 59.0765 60.3801 59.0765V59.1968H53.3494V59.0765C53.5956 59.0765 53.8589 59.0311 54.1436 58.9404C54.4262 58.8496 54.6874 58.6658 54.9229 58.3845C55.1584 58.1032 55.3533 57.6993 55.5031 57.1684C55.6551 56.6375 55.7301 55.9319 55.7301 55.0493L55.7279 55.0425Z" fill="#DC7E43"/>
<path d="M67.7192 40.4744H68.0018V44.1704H70.2134V44.4698H68.0018V54.9836C68.0018 56.1453 68.1624 56.9961 68.4835 57.5383C68.8047 58.0783 69.1922 58.3483 69.646 58.3483C69.8923 58.3483 70.1042 58.2893 70.284 58.1691C70.4639 58.0488 70.6202 57.9081 70.7508 57.7493C70.8835 57.5882 70.982 57.4294 71.0483 57.2683C71.1147 57.1072 71.1468 56.987 71.1468 56.9076L71.2603 56.9983C71.241 57.2388 71.1747 57.4952 71.0612 57.7652C70.9477 58.0352 70.7829 58.2802 70.5645 58.5003C70.3461 58.7204 70.0871 58.9019 69.7852 59.0403C69.4833 59.181 69.1429 59.2513 68.764 59.2513C68.3679 59.2513 67.9847 59.1673 67.6165 58.9949C67.2482 58.8247 66.9271 58.5593 66.6531 58.1986C66.379 57.8378 66.1564 57.3931 65.9872 56.8622C65.8181 56.3313 65.7325 55.7051 65.7325 54.9836V46.0013C65.7325 45.602 65.6939 45.3002 65.619 45.1006C65.5441 44.9009 65.4434 44.7512 65.3214 44.6491C65.1972 44.5493 65.0666 44.4948 64.9253 44.4835C64.784 44.4744 64.6556 44.4676 64.5421 44.4676V44.1681C64.8247 44.1681 65.133 44.0887 65.4627 43.9276C65.7924 43.7665 66.1093 43.5328 66.4133 43.222C66.7151 42.9112 66.9849 42.5255 67.2204 42.0649C67.4559 41.6043 67.6207 41.0734 67.7171 40.4722L67.7192 40.4744Z" fill="#DC7E43"/>
<path d="M71.7163 55.4647C71.7163 54.6638 71.8854 53.999 72.2258 53.4659C72.5662 52.935 73.0136 52.4789 73.5724 52.1C74.1291 51.7189 74.7499 51.399 75.4286 51.138C76.1094 50.8771 76.7902 50.6321 77.4689 50.4029C78.1497 50.1738 78.7877 49.9333 79.3829 49.6815C79.978 49.4319 80.4747 49.1256 80.8708 48.7648C80.7766 47.1835 80.4683 46.0604 79.9502 45.4002C79.43 44.7399 78.6892 44.4087 77.7258 44.4087C77.2719 44.4087 76.848 44.4745 76.4498 44.6038C76.0537 44.7354 75.7369 44.9237 75.4992 45.1756C75.2616 45.4274 75.1203 45.7269 75.0732 46.0763C75.0432 46.2964 75.0732 46.5323 75.1674 46.7864C75.3408 47.2629 75.3515 47.8051 75.1032 48.2407C75.0561 48.3247 75.0026 48.3973 74.9469 48.4631C74.72 48.724 74.4374 48.8533 74.0969 48.8533C73.7758 48.8533 73.4911 48.724 73.247 48.4631C73.0008 48.2022 72.898 47.8029 72.9344 47.2606C73.0094 46.319 73.4397 45.559 74.2233 44.9782C75.0068 44.3973 76.0516 44.1069 77.3554 44.1069C78.0726 44.1069 78.777 44.2113 79.4664 44.4223C80.1557 44.6333 80.7745 44.9895 81.3225 45.4887C81.8706 45.9901 82.3138 46.6458 82.6542 47.4557C82.9946 48.2657 83.1637 49.2731 83.1637 50.4755V55.0404C83.1637 55.501 83.1723 55.9412 83.1915 56.3632C83.2108 56.7829 83.2536 57.1504 83.32 57.459C83.3864 57.7698 83.4848 58.0194 83.6176 58.21C83.7482 58.4006 83.9302 58.4959 84.155 58.4959C84.3048 58.4959 84.4611 58.4618 84.6238 58.3915C84.7844 58.3212 84.9107 58.2259 85.007 58.1056L85.1205 58.2554C84.9492 58.4959 84.6816 58.7522 84.3134 59.0222C83.9451 59.2922 83.487 59.4284 82.9389 59.4284C82.712 59.4284 82.4765 59.3875 82.2303 59.3081C81.9841 59.2287 81.7614 59.0926 81.5644 58.902C81.3653 58.7114 81.2048 58.4573 81.0827 58.1351C80.9586 57.8152 80.8986 57.4136 80.8986 56.9326V55.1312C80.8044 55.6122 80.6524 56.1022 80.4447 56.6037C80.2371 57.1051 79.9481 57.5656 79.5798 57.9854C79.2116 58.4051 78.7427 58.7477 78.1775 59.0063C77.6102 59.2673 76.9122 59.3966 76.0794 59.3966C74.6814 59.3966 73.6045 59.0268 72.8488 58.2849C72.0931 57.5452 71.7141 56.6037 71.7141 55.4602L71.7163 55.4647ZM73.9835 54.7137C73.9835 55.2741 74.0691 55.8005 74.2382 56.2906C74.4074 56.7806 74.645 57.2072 74.9469 57.5679C75.2488 57.9287 75.5999 58.2145 75.9959 58.4233C76.392 58.6343 76.8266 58.7386 77.2997 58.7386C77.8286 58.7386 78.2824 58.6138 78.6614 58.3643C79.0382 58.1147 79.3593 57.788 79.6248 57.3887C79.8881 56.9894 80.1065 56.5379 80.2778 56.0364C80.4469 55.5373 80.5753 55.0404 80.661 54.5504C80.7466 54.0603 80.8066 53.5952 80.8451 53.1528C80.8836 52.7126 80.9008 52.3609 80.9008 52.1023V49.5181C80.5218 49.7382 80.0872 49.9288 79.5969 50.0876C79.1045 50.2487 78.6057 50.4075 78.094 50.5686C77.5845 50.7297 77.0835 50.9044 76.5911 51.0949C76.0987 51.2855 75.6598 51.5351 75.2723 51.8459C74.8848 52.1567 74.5722 52.5424 74.3367 53.003C74.1012 53.4636 73.9835 54.0353 73.9835 54.716V54.7137Z" fill="#DC7E43"/>
<path d="M80.5989 38.1601H86.8632V38.2803C86.5421 38.3211 86.2166 38.4618 85.8848 38.7C85.5529 38.9405 85.3881 39.2922 85.3881 39.7505C85.3881 40.0318 85.4588 40.3767 85.6001 40.7874C85.7414 41.198 85.9362 41.7834 86.1802 42.5457L91.1686 58.8268L93.6349 50.7453L90.8282 41.763C90.6012 41.0233 90.3422 40.4266 90.0489 39.9751C89.7556 39.5236 89.473 39.1742 89.1989 38.9247C88.9249 38.6751 88.683 38.5049 88.4753 38.4142C88.2676 38.3234 88.1156 38.278 88.0214 38.278V38.1578H94.2857V38.278C93.9646 38.3189 93.6392 38.4595 93.3073 38.6978C92.9755 38.9383 92.8106 39.2899 92.8106 39.7482C92.8106 40.0296 92.8813 40.3744 93.0226 40.7851C93.1639 41.1958 93.3587 41.7811 93.6028 42.5434L94.8788 46.6886L96.1547 42.5434C96.4009 41.7834 96.5808 41.2162 96.6943 40.8464C96.8077 40.4765 96.8655 40.1816 96.8655 39.9592C96.8655 39.78 96.8227 39.5894 96.7371 39.3875C96.6514 39.1878 96.5423 39.0063 96.4117 38.8475C96.2789 38.6887 96.1291 38.5571 95.9578 38.4573C95.7887 38.3574 95.6259 38.2962 95.4761 38.2758V38.1555H99.5588V38.2758C99.4839 38.2758 99.3404 38.3211 99.1327 38.4119C98.9251 38.5026 98.6939 38.6728 98.4391 38.9224C98.1843 39.172 97.9146 39.5236 97.632 39.9729C97.3494 40.4244 97.0925 41.0188 96.8677 41.7607L95.0821 47.3488L98.5975 58.8246L103.586 42.5434C103.832 41.7834 104.012 41.2162 104.123 40.8464C104.237 40.4765 104.294 40.1816 104.294 39.9592C104.294 39.78 104.252 39.5894 104.166 39.3875C104.08 39.1878 103.971 39.0063 103.841 38.8475C103.708 38.6887 103.558 38.5571 103.387 38.4573C103.215 38.3574 103.055 38.2962 102.905 38.2758V38.1555H106.988V38.2758C106.913 38.2758 106.769 38.3211 106.562 38.4119C106.354 38.5026 106.123 38.6728 105.868 38.9224C105.613 39.172 105.344 39.5236 105.061 39.9729C104.778 40.4244 104.521 41.0188 104.297 41.7607L98.7131 59.1853H96.3025L93.8083 51.2852L91.2863 59.1853H88.8778L83.4078 41.7607C83.1808 41.0211 82.9218 40.4244 82.6285 39.9729C82.3352 39.5214 82.0526 39.172 81.7785 38.9224C81.5045 38.6728 81.2626 38.5026 81.0549 38.4119C80.8472 38.3211 80.6952 38.2758 80.601 38.2758V38.1555L80.5989 38.1601Z" fill="#3C3C3B"/>
<path d="M104.324 51.7392C104.324 50.6184 104.466 49.5906 104.751 48.6604C105.033 47.7302 105.436 46.9225 105.956 46.2418C106.476 45.5612 107.095 45.0348 107.812 44.665C108.529 44.2952 109.323 44.1091 110.193 44.1091C110.91 44.1091 111.563 44.2339 112.15 44.4835C112.734 44.7353 113.235 45.0893 113.652 45.5498C114.068 46.0104 114.389 46.5617 114.616 47.2015C114.843 47.8436 114.956 48.5424 114.956 49.3048H106.594C106.555 49.5248 106.538 49.7563 106.538 49.9967V50.7477C106.538 52.0092 106.699 53.0801 107.02 53.9627C107.341 54.8452 107.756 55.5599 108.268 56.1113C108.778 56.6626 109.345 57.0574 109.968 57.2978C110.591 57.5383 111.216 57.6586 111.839 57.6586C112.595 57.6586 113.284 57.5043 113.909 57.1935C114.532 56.8827 114.986 56.4675 115.269 55.9456V56.0954C115.117 56.5968 114.886 57.0415 114.575 57.4317C114.263 57.8219 113.899 58.1487 113.483 58.4073C113.068 58.6682 112.61 58.8679 112.109 59.0085C111.608 59.1492 111.092 59.2195 110.563 59.2195C109.827 59.2195 109.084 59.0743 108.339 58.7839C107.591 58.4935 106.921 58.0443 106.326 57.4317C105.731 56.8214 105.249 56.0455 104.881 55.1039C104.513 54.1623 104.329 53.0415 104.329 51.7392H104.324ZM106.65 49.0053H111.751C112.205 49.0053 112.475 48.7648 112.558 48.2838C112.644 47.8028 112.586 47.2764 112.387 46.7069C112.188 46.1352 111.863 45.6111 111.409 45.1301C110.955 44.6491 110.418 44.4086 109.792 44.4086C108.998 44.4086 108.319 44.8397 107.752 45.6996C107.185 46.5617 106.816 47.6621 106.647 49.003L106.65 49.0053Z" fill="#3C3C3B"/>
<path d="M118.966 36.6582H119.022V48.4334C119.343 47.0925 119.93 46.0352 120.779 45.2638C121.629 44.4924 122.612 44.1067 123.728 44.1067C124.464 44.1067 125.168 44.2814 125.838 44.6331C126.509 44.9848 127.11 45.4748 127.639 46.1056C128.168 46.7363 128.59 47.4986 128.9 48.388C129.213 49.2797 129.367 50.2666 129.367 51.3466C129.367 52.5082 129.187 53.5836 128.827 54.5751C128.467 55.5666 127.986 56.4219 127.382 57.1434C126.776 57.8649 126.063 58.4299 125.241 58.8405C124.419 59.2512 123.554 59.4554 122.648 59.4554C122.1 59.4554 121.623 59.4009 121.216 59.2897C120.809 59.1808 120.452 59.0651 120.139 58.9449C119.827 58.8246 119.553 58.7089 119.317 58.6C119.08 58.4911 118.851 58.4344 118.624 58.4344C118.322 58.4344 118.009 58.5456 117.688 58.7656C117.367 58.9857 117.101 59.2671 116.894 59.6074H116.752V40.1408C116.752 39.4397 116.624 38.9451 116.369 38.6525C116.114 38.362 115.883 38.2168 115.676 38.2168V38.0966C116.166 38.0966 116.6 38.0467 116.979 37.9468C117.356 37.847 117.677 37.7268 117.943 37.5861C118.208 37.4454 118.424 37.2912 118.596 37.121C118.765 36.9508 118.889 36.7966 118.964 36.6559L118.966 36.6582ZM119.024 55.8547C119.024 56.3153 119.114 56.7464 119.294 57.1457C119.474 57.5473 119.72 57.8967 120.03 58.1962C120.343 58.4957 120.715 58.7316 121.15 58.9018C121.584 59.0719 122.058 59.1559 122.567 59.1559C123.436 59.1559 124.16 58.9358 124.736 58.4957C125.312 58.0555 125.774 57.4951 126.125 56.8145C126.474 56.1338 126.725 55.3783 126.877 54.5456C127.027 53.7152 127.104 52.9189 127.104 52.1565C127.104 51.0153 126.982 49.9943 126.735 49.0913C126.489 48.1906 126.164 47.4283 125.757 46.8089C125.35 46.1895 124.888 45.7131 124.368 45.3818C123.847 45.0506 123.314 44.8872 122.766 44.8872C122.293 44.8872 121.846 45.012 121.42 45.2616C120.994 45.5134 120.617 45.8628 120.285 46.312C119.953 46.7635 119.679 47.3035 119.463 47.9342C119.244 48.565 119.099 49.2615 119.024 50.0216V55.8502V55.8547Z" fill="#3C3C3B"/>
<path d="M130.559 51.7392C130.559 50.6184 130.701 49.5906 130.985 48.6604C131.268 47.7302 131.67 46.9225 132.191 46.2418C132.711 45.5612 133.33 45.0348 134.047 44.665C134.764 44.2952 135.558 44.1091 136.427 44.1091C137.145 44.1091 137.798 44.2339 138.384 44.4835C138.969 44.7353 139.47 45.0893 139.887 45.5498C140.302 46.0104 140.624 46.5617 140.851 47.2015C141.078 47.8436 141.191 48.5424 141.191 49.3048H132.829C132.79 49.5248 132.773 49.7563 132.773 49.9967V50.7477C132.773 52.0092 132.933 53.0801 133.255 53.9627C133.576 54.8452 133.991 55.5599 134.503 56.1113C135.012 56.6626 135.58 57.0574 136.203 57.2978C136.826 57.5383 137.451 57.6586 138.074 57.6586C138.83 57.6586 139.519 57.5043 140.144 57.1935C140.767 56.8827 141.221 56.4675 141.504 55.9456V56.0954C141.352 56.5968 141.12 57.0415 140.81 57.4317C140.497 57.8219 140.133 58.1487 139.718 58.4073C139.303 58.6682 138.845 58.8679 138.344 59.0085C137.843 59.1492 137.327 59.2195 136.798 59.2195C136.061 59.2195 135.318 59.0743 134.573 58.7839C133.826 58.4935 133.156 58.0443 132.561 57.4317C131.966 56.8214 131.484 56.0455 131.116 55.1039C130.748 54.1623 130.563 53.0415 130.563 51.7392H130.559ZM132.884 49.0053H137.986C138.44 49.0053 138.71 48.7648 138.793 48.2838C138.877 47.8028 138.821 47.2764 138.622 46.7069C138.423 46.1375 138.097 45.6111 137.643 45.1301C137.19 44.6491 136.652 44.4086 136.027 44.4086C135.233 44.4086 134.554 44.8397 133.987 45.6996C133.419 46.5617 133.051 47.6621 132.882 49.003L132.884 49.0053Z" fill="#3C3C3B"/>
<path d="M143.345 55.0425V47.0222C143.345 46.3211 143.216 45.8265 142.962 45.5361C142.707 45.2457 142.476 45.1005 142.268 45.1005V44.9803C142.758 44.9803 143.193 44.9303 143.572 44.8305C143.948 44.7307 144.27 44.6104 144.535 44.4698C144.798 44.3291 145.017 44.1748 145.188 44.0047C145.357 43.8345 145.481 43.6802 145.556 43.5396H145.612V47.476C145.783 46.8362 145.999 46.2939 146.265 45.8538C146.53 45.4136 146.828 45.0574 147.158 44.7874C147.487 44.5174 147.832 44.3223 148.192 44.202C148.551 44.0818 148.9 44.0205 149.241 44.0205C149.618 44.0205 149.973 44.0795 150.305 44.202C150.635 44.3223 150.915 44.4834 151.14 44.683C151.517 45.0438 151.716 45.4045 151.735 45.7653C151.754 46.126 151.649 46.4368 151.422 46.6978C151.176 46.9587 150.902 47.088 150.6 47.088C150.463 47.088 150.324 47.0653 150.179 47.0177C149.785 46.8906 149.483 46.5684 149.277 46.1895C149.189 46.0262 149.076 45.8878 148.941 45.7812C148.703 45.5906 148.436 45.4953 148.134 45.4953C147.642 45.4953 147.136 45.7517 146.618 46.2621C146.098 46.7726 145.764 47.5395 145.612 48.5605V55.0493C145.612 55.9319 145.687 56.6375 145.839 57.1684C145.989 57.6993 146.184 58.1054 146.419 58.3845C146.655 58.6658 146.916 58.8496 147.198 58.9404C147.481 59.0311 147.746 59.0765 147.993 59.0765V59.1968H140.962V59.0765C141.208 59.0765 141.471 59.0311 141.756 58.9404C142.039 58.8496 142.3 58.6658 142.535 58.3845C142.771 58.1032 142.966 57.6993 143.116 57.1684C143.268 56.6375 143.343 55.9319 143.343 55.0493L143.345 55.0425Z" fill="#3C3C3B"/>
</svg>
