<svg width="58" height="58" viewBox="0 0 58 58" fill="none" xmlns="http://www.w3.org/2000/svg">
<path d="M53.7709 51.5003L50.2729 41.0063V37.3961C50.2729 33.6965 48.772 30.074 46.156 27.4579C45.6983 26.9985 45.0268 26.8214 44.4079 26.9968C43.7837 27.1704 43.3015 27.6648 43.1454 28.2925L41.5884 34.517L37.2738 35.9563C37.1182 35.94 36.9668 35.9092 36.807 35.9092C34.3312 35.9092 32.3183 37.9221 32.3183 40.3979V41.2956C32.3183 42.288 33.1213 43.0911 34.1138 43.0911C35.1062 43.0911 35.9092 42.288 35.9092 41.2956V40.3979C35.9092 39.9034 36.3125 39.5001 36.807 39.5001C37.3014 39.5001 37.7047 39.9034 37.7047 40.3979V52.0684C37.7047 53.0608 38.5077 53.8638 39.5001 53.8638C40.4926 53.8638 41.2956 53.0608 41.2956 52.0684V40.3979C41.2956 39.7327 41.141 39.1063 40.8804 38.538L43.6592 37.6117C44.2413 37.4189 44.6849 36.9402 44.8322 36.3441L45.6826 32.946C46.3313 34.3312 46.682 35.8549 46.682 37.3961V41.0045L43.184 51.5003C42.8701 52.4418 43.3786 53.4588 44.3184 53.7709C44.5078 53.834 44.6989 53.8638 44.8865 53.8638C45.6387 53.8638 46.3383 53.3887 46.5891 52.6365L48.4775 46.9713L50.3658 52.6365C50.6166 53.3887 51.3162 53.8638 52.0684 53.8638C52.256 53.8638 52.4471 53.834 52.6365 53.7709C53.5763 53.4588 54.0848 52.4418 53.7709 51.5003Z" fill="white"/>
<path d="M12.5682 28.7274C15.543 28.7274 17.9546 26.3158 17.9546 23.341C17.9546 20.3662 15.543 17.9546 12.5682 17.9546C9.59339 17.9546 7.18182 20.3662 7.18182 23.341C7.18182 26.3158 9.59339 28.7274 12.5682 28.7274Z" fill="white"/>
<path d="M21.5455 37.7047V35.8715C21.5455 31.5985 19.3801 28.7274 16.1591 28.7274H14.3637L13.466 30.5228L15.2614 35.9092L12.5682 38.6024L9.87503 35.9092L11.6705 30.5228L10.7728 28.7274H8.9773C5.75634 28.7274 3.59091 31.5985 3.59091 35.8715V37.7047C3.59091 38.6962 4.39396 39.5002 5.38637 39.5002H19.7501C20.7425 39.5002 21.5455 38.6962 21.5455 37.7047Z" fill="white"/>
<path d="M43.0911 26.9319C45.0743 26.9319 46.682 25.3242 46.682 23.341C46.682 21.3578 45.0743 19.7501 43.0911 19.7501C41.1079 19.7501 39.5002 21.3578 39.5002 23.341C39.5002 25.3242 41.1079 26.9319 43.0911 26.9319Z" fill="white"/>
<path d="M35.9092 44.4044C35.3815 44.7112 34.7678 44.8865 34.1138 44.8865C32.1342 44.8865 30.5229 43.2752 30.5229 41.2956V40.3979C30.5229 36.9332 33.3423 34.1138 36.807 34.1138C36.9017 34.1138 36.9928 34.119 37.0858 34.126L40.0858 33.1249L41.2713 28.389C39.1983 27.6389 37.7047 25.6697 37.7047 23.341C37.7047 20.3708 40.1209 17.9546 43.0911 17.9546C46.0613 17.9546 48.4775 20.3708 48.4775 23.341V5.38637C48.4775 4.39484 47.6744 3.59091 46.682 3.59091H14.3637C13.3713 3.59091 12.5682 4.39484 12.5682 5.38637V16.1591C16.5291 16.1591 19.7501 19.3801 19.7501 23.341C19.7501 24.8417 19.2847 26.2337 18.4949 27.387C21.4258 28.4903 23.341 31.6516 23.341 35.8707V37.7047C23.341 39.6843 21.7297 41.2956 19.7501 41.2956H12.5682V52.0684C12.5682 53.0599 13.3713 53.8638 14.3637 53.8638H36.409C36.0995 53.3334 35.9092 52.7252 35.9092 52.0684V44.4044ZM29.6251 31.4206V29.5344C27.0829 29.1039 25.1365 26.9016 25.1365 24.2387C25.1365 23.7425 25.538 23.341 26.0342 23.341C26.5304 23.341 26.9319 23.7425 26.9319 24.2387C26.9319 26.2192 28.5424 27.8296 30.5229 27.8296C32.5033 27.8296 34.1138 26.2192 34.1138 24.2387C34.1138 22.2583 32.5033 20.6478 30.5229 20.6478C27.5526 20.6478 25.1365 18.2316 25.1365 15.2614C25.1365 12.5986 27.0829 10.3962 29.6251 9.96577V8.07957C29.6251 7.58336 30.0267 7.18184 30.5229 7.18184C31.0191 7.18184 31.4206 7.58336 31.4206 8.07957V9.96577C33.9628 10.3962 35.9092 12.5986 35.9092 15.2614C35.9092 15.7576 35.5077 16.1591 35.0115 16.1591C34.5153 16.1591 34.1138 15.7576 34.1138 15.2614C34.1138 13.281 32.5033 11.6705 30.5229 11.6705C28.5424 11.6705 26.9319 13.281 26.9319 15.2614C26.9319 17.2419 28.5424 18.8523 30.5229 18.8523C33.4931 18.8523 35.9092 21.2685 35.9092 24.2387C35.9092 26.9016 33.9628 29.1039 31.4206 29.5344V31.4206C31.4206 31.9168 31.0191 32.3183 30.5229 32.3183C30.0267 32.3183 29.6251 31.9168 29.6251 31.4206Z" fill="white"/>
</svg>
